<svg width="56" height="56" viewBox="0 0 56 56" fill="none" xmlns="http://www.w3.org/2000/svg">
<rect x="4" y="4" width="48" height="48" rx="24" fill="#FAF8F6"/>
<g clip-path="url(#clip0_508_6130)">
<path d="M26.168 21.5833C26.168 21.0971 26.3611 20.6308 26.7049 20.287C27.0488 19.9432 27.5151 19.75 28.0013 19.75C28.4875 19.75 28.9538 19.9432 29.2977 20.287C29.6415 20.6308 29.8346 21.0971 29.8346 21.5833C30.8873 22.0811 31.7848 22.856 32.4307 23.8249C33.0766 24.7938 33.4467 25.9202 33.5013 27.0833V29.8333C33.5703 30.4032 33.7721 30.949 34.0905 31.4266C34.409 31.9043 34.8351 32.3005 35.3346 32.5833H20.668C21.1675 32.3005 21.5936 31.9043 21.9121 31.4266C22.2305 30.949 22.4323 30.4032 22.5013 29.8333V27.0833C22.5559 25.9202 22.926 24.7938 23.5719 23.8249C24.2179 22.856 25.1153 22.0811 26.168 21.5833" stroke="#333461" stroke-width="2" stroke-linecap="round" stroke-linejoin="round"/>
<path d="M25.25 32.5834V33.5C25.25 34.2294 25.5397 34.9289 26.0555 35.4446C26.5712 35.9603 27.2707 36.25 28 36.25C28.7293 36.25 29.4288 35.9603 29.9445 35.4446C30.4603 34.9289 30.75 34.2294 30.75 33.5V32.5834" stroke="#333461" stroke-width="2" stroke-linecap="round" stroke-linejoin="round"/>
<path d="M36.2487 23.1664C35.6474 21.8586 34.7743 20.6939 33.6875 19.75" stroke="#20AD96" stroke-width="2" stroke-linecap="round" stroke-linejoin="round"/>
<path d="M19.75 23.1664C20.3507 21.8587 21.2232 20.6941 22.3093 19.75" stroke="#20AD96" stroke-width="2" stroke-linecap="round" stroke-linejoin="round"/>
</g>
<rect x="4" y="4" width="48" height="48" rx="24" stroke="#FAF8F6" stroke-width="8"/>
<defs>
<clipPath id="clip0_508_6130">
<rect width="22" height="22" fill="white" transform="translate(17 17)"/>
</clipPath>
</defs>
</svg>
