<svg width="56" height="56" viewBox="0 0 56 56" fill="none" xmlns="http://www.w3.org/2000/svg">
<rect x="4" y="4" width="48" height="48" rx="24" fill="#FAF8F6"/>
<g clip-path="url(#clip0_508_6109)">
<path d="M36.0213 30.9026L33.0421 27.9234H26.0907C25.8273 27.9234 25.5747 27.8188 25.3885 27.6326C25.2023 27.4464 25.0977 27.1938 25.0977 26.9304V20.9721C25.0977 20.7087 25.2023 20.4561 25.3885 20.2699C25.5747 20.0836 25.8273 19.979 26.0907 19.979H35.0282C35.2916 19.979 35.5442 20.0836 35.7304 20.2699C35.9166 20.4561 36.0213 20.7087 36.0213 20.9721V30.9026Z" stroke="#3F3A64" stroke-width="2" stroke-linecap="round" stroke-linejoin="round"/>
<path d="M29.072 31.8959V33.8821C29.072 34.1454 28.9674 34.398 28.7812 34.5843C28.595 34.7705 28.3424 34.8751 28.079 34.8751H21.1276L18.1484 37.8543V27.9237C18.1484 27.6603 18.2531 27.4078 18.4393 27.2215C18.6255 27.0353 18.8781 26.9307 19.1415 26.9307H21.1276" stroke="#20AD96" stroke-width="2" stroke-linecap="round" stroke-linejoin="round"/>
</g>
<rect x="4" y="4" width="48" height="48" rx="24" stroke="#FAF8F6" stroke-width="8"/>
<defs>
<clipPath id="clip0_508_6109">
<rect width="22" height="22" fill="white" transform="translate(17 17)"/>
</clipPath>
</defs>
</svg>
